<?xml version="1.0" encoding="UTF-8"?>
<svg version="1.1" viewBox="0 0 2000 2000" width="1280" height="1280" xmlns="http://www.w3.org/2000/svg">
<path transform="translate(0)" d="m0 0h2e3v2e3h-2e3z" fill="#1B1919"/>
<path transform="translate(1e3 337)" d="m0 0 3 1 5 16 8 20 12 26 14 24 15 23 7 11 10 14 8 10 11 13 15 14 12 11 11 10 11 9 13 11 11 8 14 10 19 12 12 7 16 7 25 8 29 7 37 6 44 6 25 5 24 7 16 7 14 8 12 9 9 7 14 12 13 12 16 16 11 14 11 15 9 15 8 17 3 10v6l-5-1-15-16-8-10-14-14-15-11-17-11-16-8-19-7-15-4-13-2h-18l-14 2-13 4-15 8-11 10-9 15-4 14-2 14v12l3 23 7 25 8 20 8 16 9 16 8 11 12 17 12 14v2h2l7 8 16 17 13 13 8 7 13 10 18 13 26 17 24 14 27 15 27 13 26 10 17 5 2 3-11 2-22 2h-40l-22-2-22-4-17-4-21-7-24-10-26-12-19-10-23-13-23-14-17-11-27-18-20-13-21-13-19-11-24-13-20-9-25-9-15-4-12-2-11-1h-10l-16 3-12 5-11 7-8 8-7 12-4 13-3 23v20l4 36 7 56v11l-4-2-5-8-12-23-10-19-9-19-13-31-12-29-15-40-9-29-6-24-4-23v-19l4-13 4-6 7-6 8-3h21l21 5 44 15 17 6 22 6 13 2h11l12-3 11-6 10-9 4-8 2-7v-21l-4-15-7-16-12-23-15-24-19-29-10-15-14-20-17-26-12-19-17-28-20-36-8-16-9-19-11-26-8-25-5-24-3-19-1-16v-22l3-13z" fill="#EE4B05"/>
<path transform="translate(930,337)" d="m0 0h2l2 8 1 8v34l-3 23-7 28-8 23-10 23-12 26-13 23-10 18-15 24-11 17-16 25-16 23-26 39-11 17-10 16-9 16-11 23-3 11v29l3 10 6 8 8 7 8 4 12 3h14l20-4 24-7 21-8 33-11 20-4h18l11 4 7 8 4 9 2 14v9l-2 15-6 27-9 30-11 31-16 40-9 21-11 24-8 17-10 19-14 25-2 1v-12l10-85v-28l-2-20-4-13-6-11-9-10-10-7-15-6-10-2h-20l-21 3-21 6-25 10-19 9-41 24-41 26-18 12-20 13-20 12-21 12-26 14-27 13-26 10-19 6-17 4-20 3-31 2h-37l-5-1-1-10 7-3 27-11 26-13 21-12 24-14 24-16 11-8 19-14 12-11 5-6 8-7 7-8 12-13 9-10 15-20 16-24 12-22 9-23 6-21 3-20v-19l-2-13-4-13-6-12-9-10-10-7-16-7-15-3h-27l-21 4-21 7-16 8-14 9-17 12-13 12-9 10-12 14-8 7h-2l1-10 6-18 10-17 14-19 12-14 23-23 11-9 17-14 15-10 19-10 16-6 23-6 29-5 39-5 36-6 31-8 22-8 16-8 17-10 19-13 17-13 13-11 11-9 24-22 4-4h2l1-3 5-5 12-13 12-16 12-17 20-32 10-18 8-16 8-18 6-20z" fill="#FBECDD"/>
<path transform="translate(311,1179)" d="m0 0 22 1 20 4 12 4 10 6 6 7 3 6v496l-8 6-17 9-17 6-17 3h-17l-17-3-15-5-17-8-11-7-1-180v-127l1-191 6-9 7-6 11-5 14-4 13-2z" fill="#FDEEC9"/>
<path transform="translate(1704,1577)" d="m0 0h9l15 4 13 5 15 9 11 10-2 1-3-1 8 17 3 9 2 7 10 9 8 10 3 5 1 6v21l-4 19-2 7h-2l-1-3-11 8-11 7-3 10-9 14-5 4h-3l2 2v3h6v2l-16 8-17 6-10 2-13 1h-14l3-3 10-5 3-2-14-12-8-10-1-3-1 1h-23l-9-1-8-3 1 1v17l-6-4-11-11-10-14-8-17-4-14-1-10 15 8 2 3 4-5 13-26v-7l-6-20-2-10-7 3-11 6h-2l3-9 10-16 10-12 13-10 12-8 5-1 1 10 4 1 17 1h15l20-12 2-5-7-1z" fill="#FEFEFD"/>
<path transform="translate(1264,379)" d="m0 0h25l15 5 14 8 12 10 10 13 6 10 6 16 4 20v19l-4 15-6 16-9 14-9 10-11 10-14 7-17 5h-18l-16-4-13-6-11-8-12-12-8-13-8-22-3-14v-28l4-13 6-15 6-10 9-10 9-8 13-8 11-5z" fill="#EE4B05"/>
<path transform="translate(647,379)" d="m0 0h19l16 4 15 8 9 7 10 10 9 14 6 14 4 19 1 8v12l-3 18-6 16-8 14-9 10-7 7-14 9-16 6-6 1h-21l-12-3-12-5-11-8-11-10-10-15-7-16-4-16-1-7v-21l5-21 8-16 7-10 9-10 11-8 14-7z" fill="#FBECDD"/>
<path transform="translate(1323,1586)" d="m0 0h28l19 5 9 5 10 9 7 10 5 14 2 19-2 17-4 12-6 10-4 5-11 8-11 5-14 3h-22l-14-3-9-4-10-7-8-7 2 51 1 11v10h-60l-1-5 2-13 1-20v-93l-2-29-1-8 1-1h59v10l-2 10 4-4 7-8 7-6 12-5z" fill="#FBECDD"/>
<path transform="translate(477,1206)" d="m0 0h101l24 3 15 4 14 7 9 8 6 12 2 9v12l-3 12-5 8-5 5-8 6-12 5-16 4-14 2-18 1h-22v49l2 34-1 1h-69l1-16 1-9 1-51v-21l-1-60z" fill="#FBECDD"/>
<path transform="translate(1163,1205)" d="m0 0h67l28 2 18 4 13 5 9 7 8 9 4 8 2 10v9l-3 13-7 12-11 9-15 6-21 4-7 1h-36l1 57 1 27-13 1h-27l-12-1-1-3 2-22z" fill="#EC4A07"/>
<path transform="translate(1107,1586)" d="m0 0h34l18 3 15 5 14 8 8 7 7 10 5 13 2 11v9l-3 14-7 14-7 8-11 8-11 5-17 5-14 2h-31l-19-3-19-7-11-7-9-8-7-11-4-13-1-8v-9l2-12 5-12 8-10 11-9 17-8 18-4z" fill="#FBECDD"/>
<path transform="translate(866,1522)" d="m0 0h61l-3 36-1 55 5-5 7-8 7-6 12-6 8-2h22l13 4 10 9 5 10 3 13 1 48 2 21v12l-1 1h-59l-1-3 3-26v-65l-2-9-9-1-10 5-7 7-7 11-1 3v44l2 23v10l-1 1h-59l-1-3 2-16 1-15v-105l-1-24-2-18z" fill="#FBECDD"/>
<path transform="translate(751,1517)" d="m0 0 21 1 17 4 16 7 13 9 12 11 12 12 1 3-16 8-23 10-3-1-8-22-8-15-6-7v-2l-4-2-9-5-7-2h-18l-9 4-4 5-1 8 3 6 7 7 17 11 24 14 18 11 12 8 13 10 7 6 8 11 5 10 2 6 1 7v15l-3 12-5 9-5 6-10 7-13 6-13 3h-28l-19-3-12-4-16-8-13-10-16-16-9-13 3-3 17-10 13-8 6-4 3 1 6 17 7 16 9 14 6 7v2l4 2 9 7 10 4 4 1h15l7-3 6-5 2-5v-8l-4-8-7-7-24-16-21-13-20-13-11-8-11-9-7-7-7-11-4-10-1-5v-16l3-10 6-9 7-7 10-6 11-4 10-2z" fill="#FBECDD"/>
<path transform="translate(1527,1272)" d="m0 0h23l18 3 13 5 9 5 10 8 9 13 5 13 1 5v17l-4 13-7 13-10 10-11 7-13 5-13 3-9 1h-22l-21-5-15-6-10-7-5-5-6-8-6-14-1-5v-23l4-12 6-10 11-11 14-8 11-4 9-2z" fill="#EC4A07"/>
<path transform="translate(824,1270)" d="m0 0h34l17 4 12 6 7 8 5 11 1 51 2 24 1 13-1 1h-53l-2-4-1-8 1-5-13 13-10 5-6 2-16 2-17-1-10-3-8-5-6-5-5-10v-16l6-12 8-8 14-7 18-5 29-7 9-6 3-6 1-5v-9l-3-7-4-3-8-1-10 4-6 7-9 14-8 7-5 2h-13l-8-4-6-8-3-6 1-4 8-5 25-9 20-4z" fill="#FBECDD"/>
<path transform="translate(729,1205)" d="m0 0 3 1-1 20-1 23v95l1 24 1 10v9l-1 1h-59l1-21 1-18v-98l-1-25-1-11v-9z" fill="#FBECDD"/>
<path transform="translate(921,1274)" d="m0 0h65l8 24 19 49 10 26 2 5 2 1 1-8 22-65 6-20 2-10 2-2h10l-2 6-7 18-15 44-12 36-7 20-8 15-9 10-8 6-8 3-6 1h-21l-15-3-15-6-8-6-4-4v-9l5-8 6-4 3-1h10l8 4 6 8 9 16 5 4 3 1h13l9-4 9-9 8-14 4-10h-54l-3-4-11-27-20-52-9-21z" fill="#FBECDD"/>
<path transform="translate(303,996)" d="m0 0h27l5 3 2 4v7l-3 1 2 10v16l-1 16 1 4v10h5v1h-6l-1 38v16l2 9 2 2-1 9 2 5 2 13 8 14 4 5 6 3 7 3 10 7 5 6-1 3-6-7-14-7-20-5-20-2-21 1-17 3-15 5-9 5-7 8-1-3 3-4h2l2-4 2-3h2l2-6 18-18h2v-2l5-5 3-4 5-14-1-4 2-7-1-6v-97l1-8-2-13 2-5 2-2z" fill="#421113"/>
<path transform="translate(1323,1586)" d="m0 0h28l19 5 9 5 10 9 7 10 5 14 2 19-2 17-4 12-6 10-4 5-11 8-11 5-14 3h-22l-9-2-8-5-3-3-3-1v-3l9 1 10 1 6-3 5-6 3-7 3-17v-28l-3-16-6-11-7-6-8-2-10 1-6 1-3-1-4 5-4 4 1-4 7-8 7-6 12-5z" fill="#FBECDD"/>
<path transform="translate(922,571)" d="m0 0h2v178l-5-1-5-3-9-7-10-9-9-11-10-18-6-18-2-12v-19l3-17 4-12 6-12 12-16 8-8 12-9 6-4z" fill="#C12D33"/>
<path transform="translate(1012,571)" d="m0 0 9 5 13 10 8 8 9 12 8 14 5 15 3 15v22l-4 17-6 15-6 11-8 10-8 9-13 10-9 5h-2v-177z" fill="#C22D32"/>
<path transform="translate(958,561)" d="m0 0h5l1 1v197h-8l-19-3-9-4-1-3v-179l6-4 17-4z" fill="#C42F30"/>
<path transform="translate(972,561)" d="m0 0 16 1 15 4v2l5 2v181l-10 5-14 3h-13v-197z" fill="#C32E31"/>
<path transform="translate(1426,1275)" d="m0 0h20l4 2-2 14-5 8-7 2-15-1h-14l-8 3-12 11-6 7v39l2 28h-47l1-14 1-15v-58l-1-13v-12h45l1 2-2 24v7l5-5 14-15 9-7 8-5z" fill="#EC4A07"/>
<path transform="translate(1532,1278)" d="m0 0h11l11 4 7 7 5 10 3 11 1 7v27l-2 14-5 15-8 9-8 4-13 1-10-3-8-7-6-12-3-11-1-10v-21l2-16 3-10 6-10 9-7z" fill="#1C1819"/>
<path transform="translate(248,1720)" d="m0 0 5 2 16 9 15 6 21 5h23l21-5 18-8 13-8 4-1v27l-2 7-5 7-11 7-12 5h-3v2l-16 3-8 1h-24l-19-3-12-4v-2l-9-2-6-4-5-4-4-8-1-3v-26z" fill="#EE4D08"/>
<path transform="translate(1117,1593)" d="m0 0h14l7 4 6 7 4 11 2 12v39l-3 16-4 10-8 7-5 2h-12l-6-3-7-8-4-10-3-18v-24l2-20 4-12 5-8z" fill="#211A19"/>
<path transform="translate(1312,1599)" d="m0 0 11 1 7 4 6 7 4 8 3 16v28l-3 17-5 10-7 6-9 1-12-4-11-8-7-8-1-3v-33l2-18 4-11 8-9z" fill="#211A19"/>
<path transform="translate(1212,1211)" d="m0 0h15l14 2 8 5 5 5 6 9 3 10 1 4v18l-5 16-6 9-8 6-10 3-8 1h-15z" fill="#1B1819"/>
<path transform="translate(1704,1637)" d="m0 0 7 1 24 11 9 4v24l-2 20-1 2-24 5-11 2-5 2-3 2-7-14-12-21-3-5 2-5 9-10 3-4h2l2-4z" fill="#211A19"/>
<path transform="translate(307,1130)" d="m0 0h16l12 2 3 3-1 7 2 5 2 13 8 14 4 5 6 3 7 3 10 7 5 6-1 3-6-7-14-7-20-5-20-2-21 1-17 3-15 5-9 5-7 8-1-3 3-4h2l2-4 2-3h2l2-6 18-18h2v-2l5-5 3-4 5-14-1-4 1-2z" fill="#481313"/>
<path transform="translate(544,1213)" d="m0 0h17l9 3 8 7 5 13 1 5v28l-5 16-5 6-10 5-8 1h-11l-1-1z" fill="#211A1A"/>
<path transform="translate(248,1720)" d="m0 0 5 2 16 9 15 6 21 5h23l21-5 18-8 13-8 4-1v27l-2 7-5 7-11 7-12 5-8 2h-5l3-2 5-2 3-3 8-3h3v-2l11-7 1-3h2l2-6 2-5-1-4-4 1-1 2h-2v2l-17 8-22 5-12 1h-11l-18-2-17-4-9-4-12-6-5-5-2-1-1-12z" fill="#FDEEC8"/>
<path transform="translate(815,1271)" d="m0 0h14v1l-7 1 2 3h5l-4 2-8 5-8 11-6 9-7 6-5 2h-13l-8-4-6-8-3-6 1-4 8-5 25-9z" fill="#FBECDD"/>
<path transform="translate(939,1392)" d="m0 0h10l8 4 6 8 9 16 5 4 3 1 12 1v1h-13l-3-1 1 4 11 2v1h-21l-15-3-15-6-8-6-4-4v-9l5-8 6-4z" fill="#FBECDC"/>
<path transform="translate(843,1315)" d="m0 0h2v35l-2 10-4 8-6 5-8 1-6-3-4-9-1-11 2-12 5-9 7-6z" fill="#281B19"/>
<path transform="translate(922,571)" d="m0 0h2v178l-5-1-3-3v-169z" fill="#FBECD9"/>
<path transform="translate(248,1707)" d="m0 0 11 6 14 7 18 6 17 3h15l22-4 16-5 15-8 5-4h3v7l-9 7-21 11-15 5-10 2h-23l-18-4-15-6-15-8-10-7-1-7z" fill="#FBECDA"/>
<path transform="translate(1060,1274)" d="m0 0h10l-2 6-7 18-15 44-12 36-7 20-8 15-9 10-8 6-8 3h-14l-4-2v-4h16l10-5 9-9 8-14 4-8 3-9 4-16 19-56 6-19 3-14z" fill="#FEFBF6"/>
<path transform="translate(1e3 567)" d="m0 0 5 1 3 2v181l-6 3h-2z" fill="#FBECDA"/>
<path transform="translate(931,567)" d="m0 0h3v187l-6-2-1-3v-179z" fill="#FEFEFC"/>
<path transform="translate(1012,571)" d="m0 0 5 3 1 1v171l-5 3h-2v-177z" fill="#FBEDDC"/>
<path transform="translate(247,1207)" d="m0 0h1v497h-1l-2-91v-301l1-71z" fill="#E4450F"/>
<path transform="translate(1597,1689)" d="m0 0 15 8 1 5h2l1 5h2v5h2v4h2l1 6h2v3h2l1 5 2 1 2 5 3 1 2 5v17l-6-4-11-11-10-14-8-17-4-14z" fill="#FEF5EF"/>
<path transform="translate(924,571)" d="m0 0 2 4 2 38v138l1 2-6-2-2-2h3l-1-5v-67z" fill="#C13029"/>
<path transform="translate(1747,1757)" d="m0 0 1 3h6v2l-16 8-17 6-10 2-13 1h-14l3-3 14-7 17-2 18-4 10-5z" fill="#FEFBF6"/>
<path transform="translate(247,1712)" d="m0 0 5 5 13 8 17 8 14 4 10 2h23l17-4 16-7 16-9 6-4-1 3 2 1v28h-1v-27l-21 12-17 7-18 4h-23l-21-5-15-6-16-9-5-3-1 3z" fill="#792214"/>
<path transform="translate(1007,569)" d="m0 0h2l2 22v90l-2 3v67l-2-3z" fill="#CD3527"/>
<path transform="translate(303,996)" d="m0 0h27l5 3 2 4v7h-6l-7-2h-22v2l-6 1-1-7 2-5 2-2z" fill="#641A18"/>
<path transform="translate(931,567)" d="m0 0h3v187l-6-2-1-3v-105h1l1 79 2-3 1-9v-142l-5 3 2-4z" fill="#FDEECE"/>
<path transform="translate(1017,575)" d="m0 0h1v171l-5 3h-2l1-62 3-3 1-12z" fill="#FEEFC9"/>
<path transform="translate(381,1708)" d="m0 0h3v7l-9 7-21 11-15 5-4-1h3v-6l1-2-3-2 17-4 16-7 11-7z" fill="#FDEEC9"/>
<path transform="translate(380,1705)" d="m0 0 2 1-2 4-13 8-14 6-23 5-7 1h-15l-20-4-18-6-15-8-4-4 2-2 14 8 20 8 13 3 8 1h17l20-4 16-6 17-9z" fill="#D03724"/>
<path transform="translate(1006,690)" d="m0 0h1l1 61-6 3h-2l1-60 4-2z" fill="#FEEFC9"/>
<path transform="translate(307,982)" d="m0 0 11 1 5 3 7 6 5 5-1 2-4-2h-27l-5 2-2 1 3-9 4-7z" fill="#401113"/>
<path transform="translate(970,562)" d="m0 0h1v197h-1l-1-49-1-3v-26l1-29v-28l-1-14v-29l1-3z" fill="#401113"/>
<path transform="translate(1009,673)" d="m0 0h1l2 14v54l-1 8 2 1-4 1-1-5v-62z" fill="#641D10"/>
<path transform="translate(1010,1413)" d="m0 0 6 1-1 4-8 8-10 5-3 1h-14l-4-2v-4h16l10-5z" fill="#FEFCF7"/>
<path transform="translate(383,1715)" d="m0 0v3l2 1v28h-1v-27l-21 12-17 7-13 3-27-1v-1l23-1 17-4 16-7 16-9z" fill="#B93515"/>
<path transform="translate(1630,1688)" d="m0 0 5 2 12 11 8 7 7 8 13 14 5 4 3 1 2-4 2-1-2 7 5 3 12 3 1 2-10-1-13-6v-2l-4-2-34-34-11-9z" fill="#FCEDD2"/>
<path transform="translate(380,1705)" d="m0 0 2 1-2 4-13 8-14 6-17 4h-11v-2l20-4 16-6 17-9z" fill="#762115"/>
<path transform="translate(301,1181)" d="m0 0h5v3l-5 2-19 3-5 2h-9l-1-3 15-5z" fill="#FBECDB"/>
<path transform="translate(798,1699)" d="m0 0 4 1v3l-1 2-5 1-2-1v2h-18l-2-6 20-1z" fill="#FEFCF9"/>
<path transform="translate(751,1517)" d="m0 0h8l6 2-5 4-2 1h-22l-2-1v-2l16-3z" fill="#FEFEFB"/>
<path transform="translate(546,1382)" d="m0 0h1v5l-1 1h-69v-1l8-1 46-1 15 1z" fill="#FEEFC9"/>
<path transform="translate(1306,1694)" d="m0 0 9 1 11 2v5l-3 3-7-1-7-6-3-1z" fill="#FEFCF9"/>
<path transform="translate(1020,1395)" d="m0 0 6 3-2 6-7 12-1-2-5-1 6-11z" fill="#FBECDC"/>
<path transform="translate(1034,1354)" d="m0 0 2 4 3 1 1-2-2 9-3 9-2-1v-2h-4l-1 2 2-9z" fill="#FBECDA"/>
<path transform="translate(1303,1594)" d="m0 0h7l4 2v2l3 1-11 3-7-1-4 5-4 4 1-4 7-8z" fill="#FEFDFA"/>
<path transform="translate(951,642)" d="m0 0h5v18h-6v-17z" fill="#FDF7ED"/>
<path transform="translate(287,1736)" d="m0 0 9 1 10 2v2h22v2h-23l-21-5z" fill="#872516"/>
<path transform="translate(979,595)" d="m0 0h6v15l-1 2-5-1-1-15z" fill="#FEFDFA"/>
<path transform="translate(951,666)" d="m0 0h5v17l-2 1-4-1v-16z" fill="#FBECD8"/>
<path transform="translate(904,1701)" d="m0 0h13l9 1-1 2h-44l-9-1v-1z" fill="#FEEFC9"/>
<path transform="translate(952,713)" d="m0 0h4v16l-2 1-4-1-1-8 1-7z" fill="#FBECD7"/>
<path transform="translate(952,689)" d="m0 0 4 1v16l-4 1-2-1v-16z" fill="#FBECD9"/>
<path transform="translate(978,643)" d="m0 0h6l1 1v14l-3 2-3-1z" fill="#FCEDD4"/>
<path transform="translate(980,666)" d="m0 0 5 2v13l-2 3-4-1-1-15z" fill="#fff"/>
<path transform="translate(950,620)" d="m0 0h6v16h-5l-1-1-1-14z" fill="#fff"/>
<path transform="translate(950,595)" d="m0 0h6v16l-2 1-4-1z" fill="#FDF7EF"/>
<path transform="translate(291,1741)" d="m0 0h9l7 2 19 1-4 2-25 1-6-5z" fill="#FBECDB"/>
<path transform="translate(979,572)" d="m0 0h5l1 1v14l-5 2-1-1z" fill="#FEFBF2"/>
<path transform="translate(950,572)" d="m0 0h6v16h-6z" fill="#FDF7F0"/>
<path transform="translate(1666,1722)" d="m0 0h2l7 8 5 4 3 1 2-4 2-1-2 7 5 3 12 3 1 2-10-1-13-6v-2l-4-2-10-10z" fill="#F7D4AF"/>
<path transform="translate(979,619)" d="m0 0 5 1 1 1v13l-1 1h-5l-1-15z" fill="#FEFBF2"/>
<path transform="translate(979,690)" d="m0 0h5l1 1v12l-2 3h-4l-1-15z" fill="#FCEDD0"/>
<path transform="translate(952,738)" d="m0 0h4v18h-5l-1-17z" fill="#FDEECB"/>
<path transform="translate(304 1e3)" d="m0 0h24l3 1v2l5 1v1l-7-1-5-1h-22v2l-5 1v-3z" fill="#FEEFC9"/>
<path transform="translate(1119,1587)" d="m0 0h14l-4 5-13 1-3-2v-3z" fill="#fff"/>
<path transform="translate(1730,1764)" d="m0 0h6l-1 2-21 5-9 1-5-1 1-2 17-2z" fill="#FBE5C9"/>
<path transform="translate(381,1708)" d="m0 0h3v7l-5 4-4-1-1-2-5 2v-2l11-7z" fill="#FBECD8"/>
<path transform="translate(306,997)" d="m0 0h23l6 4-2 1-6-2h-23l-6 2-1-2z" fill="#FEEFC9"/>
<path transform="translate(348,1721)" d="m0 0 3 1 2 2-17 4h-11v-2l20-4z" fill="#972B14"/>
<path transform="translate(307,1130)" d="m0 0h16l11 3 2 3-6-1-5-2-6-1h-9l-9 3h-4v-2z" fill="#FEEFC9"/>
<path transform="translate(1708,1746)" d="m0 0h8l19 4 11 3-4 2-9-3-23-4z" fill="#FBDDBB"/>
<path transform="translate(303,1726)" d="m0 0 22 1 5 1v1l-7 1h-15l-6-1z" fill="#D63B1D"/>
<path transform="translate(982,714)" d="m0 0 2 1v13l-1 2h-3l-1-11v-4z" fill="#FEEFC9"/>
<path transform="translate(252,1706)" d="m0 0 11 6 8 4v2l-3 1-16-9-1-2z" fill="#A02B1B"/>
<path transform="translate(980,738)" d="m0 0h3l1 16-4 2-1-17z" fill="#FCEDD1"/>
<path transform="translate(829,1271)" d="m0 0h8l-2 5-12 1-2-4 1-1z" fill="#fff"/>
<path transform="translate(303,996)" d="m0 0h27l5 3 2 4-7-1 4-1-5-3h-23l-9 2 2-3z" fill="#D63B1E"/>
<path transform="translate(339,1737)" d="m0 0 3 1v2l-9 2-27-1v-1l23-1z" fill="#B13217"/>
<path transform="translate(380,1705)" d="m0 0 2 1-2 4-9 6h-4v-3l12-7z" fill="#812618"/>
<path transform="translate(979,595)" d="m0 0h6v15h-1l-1-9v-3l-2-1-1 14h-1l-1-15z" fill="#FCEDD4"/>
<path transform="translate(981,644)" d="m0 0h3v12l-4 2v-12z" fill="#FEFEFE"/>
<path transform="translate(928,743)" d="m0 0h4l1 3v7l-5-1-1-3z" fill="#FBECDE"/>
<path transform="translate(951,668)" d="m0 0h4v14l-3-1-1-5z" fill="#fff"/>
<path transform="translate(721,1629)" d="m0 0 3 1v6l-6 1-3-1v-3z" fill="#FEFAF5"/>
<path transform="translate(980,666)" d="m0 0 5 2v13l-2 3-4-1-1-15zm2 2-2 2v12l3 1 1-3v-11z" fill="#FCEDD4"/>
<path transform="translate(950,620)" d="m0 0 3 1h-2v11l3 1 1 2v-15h1v16h-5l-1-1-1-14z" fill="#FCEDD6"/>
<path transform="translate(363,1187)" d="m0 0h6l8 6 4 5-1 3-6-7-11-6z" fill="#84231A"/>
<path transform="translate(1012,739)" d="m0 0 4 2 1 6-6 2v-8z" fill="#FBECD9"/>
<path transform="translate(979,619)" d="m0 0 5 1-3 8-1 6 4 1h-5l-1-15z" fill="#FCEDD6"/>
<path transform="translate(1730,1764)" d="m0 0h6l-1 2-13 3h-5l1-2z" fill="#F8B588"/>
<path transform="translate(351,1733)" d="m0 0h4l-1 3-8 3h-5l1-3z" fill="#872516"/>
<path transform="translate(290,1724)" d="m0 0 10 1 7 2v1h-11l-6-2z" fill="#CD3527"/>
<path transform="translate(932,737)" d="m0 0h1l1 8v9l-2-1v-10h-4l1-5z" fill="#FDEAC3"/>
<path transform="translate(982,691)" d="m0 0 2 1v9l-4 1v-10z" fill="#fff"/>
<path transform="translate(1747,1757)" d="m0 0 1 3h6v2h-9l-4 2h-5l3-3 7-3z" fill="#FBDCBA"/>
<path transform="translate(1685,1738)" d="m0 0 18 6v1l-10-1-9-4z" fill="#FBE0C0"/>
<path transform="translate(1617,1063)" d="m0 0 3 1-3 4h-17v-1l15-2z" fill="#401113"/>
<path transform="translate(1006,747)" d="m0 0 2 1v3l-6 3h-2v-6l6 1z" fill="#FCEDD6"/>
<path transform="translate(306,1737)" d="m0 0 3 1 20 1v1h-23l-6-1v-1z" fill="#FEEFC9"/>
<path transform="translate(1303,1594)" d="m0 0 2 1-9 9-4 6-1-3 9-10z" fill="#FDF7EC"/>
<path transform="translate(332,1725)" d="m0 0h7l-3 3h-11v-2z" fill="#8A2616"/>
<path transform="translate(383,1715)" d="m0 0v3l-4 5-5 2-1-3 9-6z" fill="#9D2C18"/>
<path transform="translate(556,1296)" d="m0 0h11l-3 3h-8l-2-2z" fill="#FEFBF4"/>
<path transform="translate(951,691)" d="m0 0h4v10l-3-2z" fill="#fff"/>
<path transform="translate(926,569)" d="m0 0 2 1-1 21h-1l-1-20-2-1z" fill="#4B1412"/>
<path transform="translate(945,1595)" d="m0 0 5 1 1 3-7 1-1-3z" fill="#FEFDFB"/>
<path transform="translate(248,1742)" d="m0 0 2 4 3 5 1 6h-2l-3-5z" fill="#FEEFC9"/>
<path transform="translate(371,1723)" d="m0 0h3v3l-5 3-4-1 3-3z" fill="#812317"/>
<path transform="translate(252,1706)" d="m0 0 9 5-4 2-6-4z" fill="#CC3428"/>
<path transform="translate(1630,1688)" d="m0 0 5 2 5 5-3 1-7-6z" fill="#FBECDA"/>
<path transform="translate(1060,1274)" d="m0 0h10l-2 4v-2h-6l-2 1-1 5h-1v-6z" fill="#FCEED4"/>
</svg>
